<svg width="140" height="136" viewBox="0 0 140 136" fill="none" xmlns="http://www.w3.org/2000/svg">
<path d="M63.3788 89.4769C64.4027 89.9676 65.4265 90.4582 66.4813 90.9638C67.5803 91.4957 68.679 92.0282 69.7775 92.5611C70.6151 92.9665 70.6151 92.9665 71.4696 93.38C74.4143 94.8055 77.3567 96.2358 80.2973 97.6697C83.3405 99.1525 86.3915 100.618 89.4444 102.081C91.79 103.208 94.1295 104.348 96.4674 105.491C97.5907 106.038 98.7164 106.58 99.8443 107.117C101.412 107.864 102.97 108.631 104.527 109.399C105.417 109.83 106.308 110.262 107.225 110.706C114.42 115.96 85.2806 126.333 80.0002 127.003C79.3108 127.108 78.6215 127.213 77.9113 127.321C65.1638 129.095 59.9087 127.889 58.3869 114.65C57.6817 109.822 56.3773 105.12 55.1792 100.395C54.4881 97.6485 53.8281 94.8946 53.172 92.1392C52.9461 91.1978 52.7202 90.2564 52.4875 89.2864C50.8413 81.571 59.1651 87.451 63.3788 89.4769Z" fill="black"/>
<path d="M112 109.998C108.746 109.742 106.261 108.287 103.441 106.717C102.652 106.313 101.863 105.91 101.05 105.495C98.5344 104.197 96.0504 102.848 93.5625 101.498C91.8617 100.617 90.1592 99.7393 88.4551 98.8651C82.2606 95.64 82.2606 95.64 79.1936 93.9725C78.5752 93.639 77.9567 93.3056 77.3196 92.9621C74.0532 90.5753 77.0572 89.2518 79.4656 88.1219C80.6039 87.5806 80.6039 87.5806 81.7652 87.0283C82.5993 86.6419 83.4335 86.2554 84.2929 85.8572C85.15 85.4526 86.007 85.0479 86.8899 84.631C89.6523 83.3289 92.4198 82.0384 95.1875 80.7479C97.0049 79.8931 98.8219 79.0377 100.639 78.1815C104.975 76.1399 109.319 74.1127 113.664 72.0899C115.812 71.0856 117.955 70.0706 120.096 69.0506C120.699 68.7655 121.303 68.4804 121.924 68.1866C123.483 67.4502 125.039 66.7091 126.595 65.9676C137.519 61.5631 123.301 104.104 112 109.998Z" fill="black"/>
<path d="M45.5598 71.6287C45.7015 72.2028 45.8431 72.777 45.9891 73.3685C46.4549 75.2665 46.9097 77.1669 47.3633 79.0679C47.6813 80.3855 47.9995 81.703 48.3179 83.0205C48.9829 85.7808 49.6417 88.5424 50.2971 91.305C51.1405 94.8555 52.0046 98.4007 52.8739 101.945C53.5371 104.663 54.1865 107.384 54.832 110.106C55.1448 111.415 55.4627 112.723 55.7856 114.03C56.2339 115.852 56.6629 117.677 57.0872 119.504C57.3365 120.544 57.5858 121.583 57.8427 122.655C58.5266 132.859 20.5222 105.49 16.957 97.732C17.0273 93.2663 19.8963 90.8127 22.75 87.564C23.9491 86.1483 25.147 84.7316 26.3438 83.314C26.9535 82.5999 27.5632 81.8857 28.1914 81.1499C30.9647 77.8555 33.6091 74.4648 36.25 71.064C43.2392 62.095 43.2392 62.095 45.5598 71.6287Z" fill="black"/>
<path d="M22.0781 41.1744C22.964 41.1748 23.85 41.1752 24.7628 41.1757C26.6324 41.184 28.5019 41.2095 30.371 41.2508C33.2538 41.3112 36.1322 41.3124 39.0156 41.3052C40.8281 41.3206 42.6406 41.3394 44.4531 41.3619C45.7591 41.3639 45.7591 41.3639 47.0916 41.3659C48.2784 41.3993 48.2784 41.3993 49.4892 41.4334C50.193 41.4457 50.8967 41.4579 51.6218 41.4705C55.2569 42.8635 50.7618 47.8076 49.2265 49.6158C48.6546 50.2979 48.0828 50.9799 47.4936 51.6827C46.5686 52.7672 46.5686 52.7672 45.6249 53.8736C44.3372 55.409 43.0508 56.9455 41.7656 58.483C41.1256 59.2468 40.4855 60.0105 39.8261 60.7974C37.284 63.8615 34.8212 66.9828 32.3749 70.1236C31.9427 70.6752 31.5105 71.2269 31.0651 71.7952C29.1682 74.2167 27.276 76.6415 25.395 79.0753C23.75 81.2015 22.0944 83.3192 20.4374 85.4361C19.6676 86.4408 19.6676 86.4408 18.8823 87.4659C18.4042 88.0735 17.9261 88.6812 17.4335 89.3072C17.0113 89.8517 16.589 90.3963 16.154 90.9573C12.6812 94.0907 11.6439 87.3043 10.9374 84.8736C10.7612 84.2783 10.5849 83.683 10.4033 83.0696C7.13117 71.758 7.17083 60.4512 9.99995 48.9986C10.1347 48.4076 10.2695 47.8165 10.4084 47.2076C12.393 40.7913 15.9123 41.0058 22.0781 41.1744Z" fill="black"/>
<path d="M125.437 38.1234C125.767 38.7798 126.097 39.4361 126.437 40.1124C128.598 44.6389 130.066 49.0721 131 53.9984C131.183 54.6061 131.367 55.2138 131.556 55.8399C132.983 63.1455 124.015 64.9366 118.562 67.1859C117.385 67.6956 116.208 68.2079 115.033 68.723C112.753 69.7176 110.466 70.6947 108.172 71.6561C104.646 73.1481 101.162 74.7214 97.687 76.3277C91.0827 78.9528 99.1976 49.902 100.368 44.5496C101.068 41.3473 101.762 38.1436 102.455 34.9398C102.898 32.9046 103.341 30.8694 103.785 28.8343C103.992 27.8761 104.2 26.9179 104.413 25.9306C104.607 25.0485 104.8 24.1665 105 23.2577C105.254 22.0928 105.254 22.0928 105.513 20.9045C108.301 9.98059 123.109 33.4833 125.437 38.1234Z" fill="black"/>
<path d="M58.4374 12.4359C59.3079 13.6173 60.179 14.7983 61.0507 15.9788C61.5181 16.62 61.9856 17.2611 62.4672 17.9217C64.1302 20.1749 65.8312 22.3951 67.5429 24.6116C68.1372 25.3813 68.7315 26.1509 69.3439 26.9439C70.5238 28.4706 71.704 29.9972 72.8844 31.5235C73.4201 32.2216 73.9558 32.9197 74.5077 33.639C74.9887 34.2632 75.4697 34.8874 75.9652 35.5306C78.6511 39.3407 74.1215 38.1822 71.245 38.2388C70.3283 38.2583 70.3283 38.2583 69.3931 38.2782C63.0264 38.4044 56.6585 38.4616 50.2909 38.5132C47.2557 38.5402 44.222 38.5891 41.1874 38.6568C37.5433 38.7379 33.9006 38.7813 30.2557 38.7963C28.8566 38.8087 27.4577 38.835 26.0591 38.8748C17.1859 39.1144 12.1441 38.8431 18.9999 29.9984C19.4322 29.4214 19.8646 28.8445 20.31 28.2501C21.4911 26.7342 22.7471 25.3367 24.0624 23.9359C24.5392 23.4234 25.016 22.911 25.5072 22.3831C33.4557 14.1348 49.8688 0.351795 58.4374 12.4359Z" fill="black"/>
<path d="M92.9999 7.99976C94.0776 8.32718 95.1552 8.65461 96.2655 8.99195C101.274 10.9086 103.662 12.1802 102.93 17.8044C102.739 19.2727 102.739 19.2727 102.544 20.7705C101.668 25.9692 100.637 31.1156 99.4708 36.2554C99.0563 38.0892 98.6575 39.926 98.2597 41.7634C97.9982 42.9375 97.7359 44.1113 97.4726 45.2849C97.1208 46.8609 97.1208 46.8609 96.7619 48.4688C94.753 55.1416 92.4997 51.7724 89.4999 47.9373C89.0578 47.3887 88.6156 46.8401 88.1601 46.2749C86.7593 44.5272 85.3771 42.7661 83.9999 40.9998C83.5758 40.4574 83.1517 39.915 82.7147 39.3562C80.2096 36.1423 77.7337 32.9067 75.2675 29.6628C73.5354 27.3903 71.7899 25.1282 70.0443 22.866C68.3939 20.7256 66.749 18.5811 65.1044 16.4363C64.0869 15.1129 63.0632 13.7944 62.039 12.4763C61.4898 11.7622 60.9407 11.048 60.3749 10.3123C59.9083 9.71027 59.4416 9.10828 58.9608 8.48804C53.5046 0.0375457 88.4559 6.53832 92.9999 7.99976Z" fill="black"/>
</svg>
